<svg xmlns="http://www.w3.org/2000/svg" viewBox="0 0 800 450">
  <defs>
    <linearGradient id="g" x1="0%" y1="0%" x2="100%" y2="100%">
      <stop offset="0%" stop-color="#059669"/>
      <stop offset="100%" stop-color="#10b981"/>
    </linearGradient>
  </defs>
  <rect width="800" height="450" fill="url(#g)"/>
  <rect x="60" y="80" width="680" height="290" rx="16" fill="rgba(255,255,255,0.12)"/>
  <rect x="100" y="120" width="120" height="16" rx="8" fill="rgba(255,255,255,0.6)"/>
  <rect x="100" y="148" width="80" height="10" rx="5" fill="rgba(255,255,255,0.3)"/>
  <rect x="100" y="180" width="560" height="1" fill="rgba(255,255,255,0.2)"/>
  <rect x="100" y="200" width="160" height="32" rx="8" fill="rgba(255,255,255,0.15)"/>
  <rect x="280" y="200" width="160" height="32" rx="8" fill="rgba(255,255,255,0.15)"/>
  <rect x="460" y="200" width="160" height="32" rx="8" fill="rgba(255,255,255,0.15)"/>
  <rect x="100" y="252" width="560" height="12" rx="6" fill="rgba(255,255,255,0.2)"/>
  <rect x="100" y="276" width="420" height="12" rx="6" fill="rgba(255,255,255,0.15)"/>
  <rect x="100" y="300" width="480" height="12" rx="6" fill="rgba(255,255,255,0.1)"/>
  <rect x="580" y="340" width="100" height="30" rx="8" fill="rgba(255,255,255,0.3)"/>
</svg>
